HIERARCHY
ROOT joint_Root
{
	OFFSET 0.0 0.0 0.0
	CHANNELS 6 Xposition Yposition Zposition Zrotation Xrotation Yrotation 
	JOINT Hips
	{
		OFFSET 4.5925 91.4895 -427.239
		CHANNELS 6 Xposition Yposition Zposition Zrotation Xrotation Yrotation 
		JOINT Spine
		{
			OFFSET 15.7357 0.0 0.0
			CHANNELS 6 Xposition Yposition Zposition Zrotation Xrotation Yrotation 
			JOINT Chest
			{
				OFFSET 8.98455 -0.406207 0.0
				CHANNELS 6 Xposition Yposition Zposition Zrotation Xrotation Yrotation 
				JOINT Neck
				{
					OFFSET 16.3773 0.0 0.0
					CHANNELS 6 Xposition Yposition Zposition Zrotation Xrotation Yrotation 
					JOINT Head
					{
						OFFSET 6.45672 0.0 0.0
						CHANNELS 6 Xposition Yposition Zposition Zrotation Xrotation Yrotation 
						End Site
						{
							OFFSET 0.0 0.0 0.0
						}
					}
				}
				JOINT Shoulder_L
				{
					OFFSET 12.9942 -0.242716 4.98039
					CHANNELS 6 Xposition Yposition Zposition Zrotation Xrotation Yrotation 
					JOINT UpperArm_L
					{
						OFFSET 5.34809 0.0 0.0
						CHANNELS 6 Xposition Yposition Zposition Zrotation Xrotation Yrotation 
						JOINT LowerArm_L
						{
							OFFSET 24.3286 1.87007e-05 0.0
							CHANNELS 6 Xposition Yposition Zposition Zrotation Xrotation Yrotation 
							JOINT Hand_L
							{
								OFFSET 22.2916 0.0 0.0
								CHANNELS 6 Xposition Yposition Zposition Zrotation Xrotation Yrotation 
								End Site
								{
									OFFSET 0.0 0.0 0.0
								}
							}
						}
					}
				}
				JOINT Shoulder_R
				{
					OFFSET 12.9945 -0.242716 -4.98039
					CHANNELS 6 Xposition Yposition Zposition Zrotation Xrotation Yrotation 
					JOINT UpperArm_R
					{
						OFFSET -5.34813 0.0 0.0
						CHANNELS 6 Xposition Yposition Zposition Zrotation Xrotation Yrotation 
						JOINT LowerArm_R
						{
							OFFSET -24.3289 0.000322201 0.0
							CHANNELS 6 Xposition Yposition Zposition Zrotation Xrotation Yrotation 
							JOINT Hand_R
							{
								OFFSET -22.2915 -0.000108084 0.0
								CHANNELS 6 Xposition Yposition Zposition Zrotation Xrotation Yrotation 
								End Site
								{
									OFFSET 0.0 0.0 0.0
								}
							}
						}
					}
				}
			}
		}
		JOINT UpperLeg_L
		{
			OFFSET -2.19248 -6.46944 0.0
			CHANNELS 6 Xposition Yposition Zposition Zrotation Xrotation Yrotation 
			JOINT LowerLeg_L
			{
				OFFSET 39.0811 0.0 -1.23785e-05
				CHANNELS 6 Xposition Yposition Zposition Zrotation Xrotation Yrotation 
				JOINT Foot_L
				{
					OFFSET 40.9854 0.0 -1.26872e-05
					CHANNELS 6 Xposition Yposition Zposition Zrotation Xrotation Yrotation 
					JOINT Toes_L
					{
						OFFSET 11.7543 0.0 0.0
						CHANNELS 6 Xposition Yposition Zposition Zrotation Xrotation Yrotation 
						End Site
						{
							OFFSET 0.0 0.0 0.0
						}
					}
				}
			}
		}
		JOINT UpperLeg_R
		{
			OFFSET -2.19251 6.46944 0.0
			CHANNELS 6 Xposition Yposition Zposition Zrotation Xrotation Yrotation 
			JOINT LowerLeg_R
			{
				OFFSET -39.0811 -0.00228153 -0.0401928
				CHANNELS 6 Xposition Yposition Zposition Zrotation Xrotation Yrotation 
				JOINT Foot_R
				{
					OFFSET -40.9854 0.0 0.0
					CHANNELS 6 Xposition Yposition Zposition Zrotation Xrotation Yrotation 
					JOINT Toes_R
					{
						OFFSET -11.7543 0.0 0.0
						CHANNELS 6 Xposition Yposition Zposition Zrotation Xrotation Yrotation 
						End Site
						{
							OFFSET 0.0 0.0 0.0
						}
					}
				}
			}
		}
	}
}
MOTION
Frames:	9
Frame Time:	0.0333333
0.000000 0.000000 0.000000 0.000000 0.000000 -0.000000 141.221000 89.425200 130.150000 95.490400 -30.939700 2.349480 15.735700 0.000005 -0.000001 47.206400 82.215800 -46.370000 8.984550 -0.406207 -0.000000 3.790690 -10.591600 2.026060 16.377300 -0.000001 -0.000001 0.255015 -7.365160 0.818492 6.456720 -0.000001 -0.000000 -2.641490 -4.673490 6.030470 12.994200 -0.242716 4.980390 -87.848900 -7.196600 -73.310700 5.348090 -0.000007 -0.000001 -59.287100 24.996700 -53.518300 24.328600 0.000019 0.000005 -0.673853 0.327904 -115.945000 22.291600 -0.000001 0.000005 8.864640 5.487330 -6.031250 12.994500 -0.242716 -4.980390 90.272800 -0.931014 -73.670100 -5.348130 -0.000001 -0.000004 -70.559500 49.962100 38.906500 -24.328900 0.000322 -0.000009 -12.194400 -1.016650 -85.311700 -22.291500 -0.000108 -0.000004 14.595600 5.647150 -14.741800 -2.192480 -6.469440 -0.000000 -170.850000 -13.523500 -1.262880 39.081100 -0.000007 -0.000012 -0.091175 0.175640 27.434000 40.985400 -0.000006 -0.000013 -8.036230 7.799150 -66.396300 11.754300 -0.000000 0.000003 -0.770250 -0.934236 -18.325200 -2.192510 6.469440 -0.000001 -177.914000 7.989450 149.136000 -39.081100 -0.002282 -0.040193 0.121011 -0.050632 66.752300 -40.985400 0.000008 0.000006 8.116390 -7.329290 -59.290200 -11.754300 -0.000006 -0.000006 -0.024189 -0.189474 -24.323100
0.000000 0.000000 0.000000 0.000000 0.000000 -0.000000 139.542000 90.004000 133.237000 95.991100 -34.224800 1.470170 15.735700 0.000005 -0.000001 44.093000 82.061800 -42.903800 8.984550 -0.406207 -0.000000 3.460440 -11.434100 2.728430 16.377300 -0.000001 -0.000001 0.086535 -6.692560 0.800014 6.456720 -0.000001 -0.000000 -3.511660 -3.830820 5.746890 12.994200 -0.242716 4.980390 -87.206100 -9.169130 -72.972800 5.348090 -0.000007 -0.000001 -57.911900 23.856000 -57.904300 24.328600 0.000019 0.000005 -0.887167 0.514351 -120.096000 22.291600 -0.000001 0.000005 8.401800 5.480830 -5.779960 12.994500 -0.242716 -4.980390 91.198600 -4.110410 -73.726400 -5.348130 -0.000001 -0.000004 -70.536300 48.307600 40.772700 -24.328900 0.000322 -0.000009 -10.107300 -0.209710 -88.822800 -22.291500 -0.000108 -0.000004 13.710500 5.638070 -13.964700 -2.192480 -6.469440 -0.000000 -170.788000 -17.344400 1.805930 39.081100 -0.000007 -0.000012 -0.080387 0.175576 24.600700 40.985400 -0.000006 -0.000013 -7.923530 8.228110 -62.669900 11.754300 -0.000000 0.000003 -0.012049 -0.118371 -21.402400 -2.192510 6.469440 -0.000001 -175.157000 10.106100 146.703000 -39.081100 -0.002282 -0.040193 0.043767 -0.027076 56.265400 -40.985400 0.000008 0.000006 4.008320 -0.678938 -62.757200 -11.754300 -0.000006 -0.000006 -0.025481 -0.195948 -24.590800
0.000000 0.000000 0.000000 0.000000 0.000000 -0.000000 137.619000 89.715200 136.664000 97.521000 -37.784300 2.398650 15.735700 0.000005 -0.000001 44.659300 81.853800 -43.485400 8.984550 -0.406207 -0.000000 3.872810 -11.613000 2.745290 16.377300 -0.000001 -0.000001 0.115999 -6.055500 0.734285 6.456720 -0.000001 -0.000000 -4.425600 -3.589580 6.110890 12.994200 -0.242716 4.980390 -86.941900 -9.795860 -72.567100 5.348090 -0.000007 -0.000001 -56.258400 24.744500 -59.906700 24.328600 0.000019 0.000005 -0.891583 0.561615 -122.205000 22.291600 -0.000001 0.000005 7.614820 5.479610 -5.733340 12.994500 -0.242716 -4.980390 91.592500 -5.692310 -74.341200 -5.348130 -0.000001 -0.000004 -69.892100 44.648300 40.489600 -24.328900 0.000322 -0.000009 -9.749980 0.122151 -90.709100 -22.291500 -0.000108 -0.000004 14.127900 5.632600 -13.536600 -2.192480 -6.469440 -0.000000 -171.049000 -20.014900 4.883040 39.081100 -0.000007 -0.000012 -0.104317 0.225044 24.869700 40.985400 -0.000006 -0.000013 -8.754500 8.310490 -60.271600 11.754300 -0.000000 0.000003 -0.032328 -0.227955 -25.921500 -2.192510 6.469440 -0.000001 -172.240000 14.567600 146.148000 -39.081100 -0.002282 -0.040193 -0.007544 0.010326 46.296400 -40.985400 0.000008 0.000006 1.157760 2.670470 -64.652300 -11.754300 -0.000006 -0.000006 -0.026897 -0.202873 -24.877300
0.000000 0.000000 0.000000 0.000000 0.000000 -0.000000 135.250000 88.737000 140.219000 99.348800 -40.513000 3.787340 15.735700 0.000005 -0.000001 45.186400 81.728100 -44.165900 8.984550 -0.406207 -0.000000 4.146500 -11.675000 2.468120 16.377300 -0.000001 -0.000001 0.157145 -6.039710 1.060850 6.456720 -0.000001 -0.000000 -4.470760 -3.379410 6.331680 12.994200 -0.242716 4.980390 -87.034500 -9.429120 -72.452900 5.348090 -0.000007 -0.000001 -54.991300 28.466400 -59.322000 24.328600 0.000019 0.000005 -0.088187 0.054433 -121.456000 22.291600 -0.000001 0.000005 7.313490 5.480330 -5.760970 12.994500 -0.242716 -4.980390 91.395300 -5.172660 -74.881300 -5.348130 -0.000001 -0.000004 -68.724700 40.630500 38.695500 -24.328900 0.000322 -0.000009 -10.185300 0.216299 -91.202600 -22.291500 -0.000108 -0.000004 15.536200 5.633390 -13.593300 -2.192480 -6.469440 -0.000000 -172.263000 -18.265200 6.605960 39.081100 -0.000007 -0.000012 -0.132947 0.253700 27.656100 40.985400 -0.000006 -0.000013 -10.478600 6.278120 -59.415400 11.754300 -0.000000 0.000003 -0.068148 -0.357402 -31.368700 -2.192510 6.469440 -0.000001 -167.855000 21.230200 145.600000 -39.081100 -0.002282 -0.040193 -0.022066 0.031299 39.001300 -40.985400 0.000008 0.000006 1.551650 -1.638060 -65.930300 -11.754300 -0.000006 -0.000006 -0.028197 -0.209080 -25.134400
0.000000 0.000000 0.000000 0.000000 0.000000 -0.000000 132.378000 87.338200 143.864000 101.220000 -41.746300 5.460250 15.735700 0.000005 -0.000001 45.484600 81.773500 -44.581700 8.984550 -0.406207 -0.000000 4.127210 -11.546800 2.225960 16.377300 -0.000001 -0.000001 0.283347 -6.770710 1.588110 6.456720 -0.000001 -0.000000 -3.825090 -3.482480 5.810440 12.994200 -0.242716 4.980390 -87.718100 -7.642690 -73.323400 5.348090 -0.000007 -0.000001 -55.222500 34.565500 -55.274600 24.328600 0.000019 0.000005 1.368130 -0.700762 -117.161000 22.291600 -0.000001 0.000005 7.499050 5.487620 -6.041650 12.994500 -0.242716 -4.980390 90.749800 -2.732450 -74.645900 -5.348130 -0.000001 -0.000004 -67.351300 36.366100 35.596300 -24.328900 0.000322 -0.000009 -11.137700 -0.156228 -89.205900 -22.291500 -0.000108 -0.000004 17.373600 5.638350 -13.979800 -2.192480 -6.469440 -0.000000 -173.123000 -15.594200 7.417360 39.081100 -0.000007 -0.000012 -0.148780 0.235055 32.332300 40.985400 -0.000006 -0.000013 -12.664400 6.226780 -57.734700 11.754300 -0.000000 0.000003 -0.144122 -0.543010 -39.506500 -2.192510 6.469440 -0.000001 -164.453000 27.766500 144.576000 -39.081100 -0.002282 -0.040193 -0.027214 0.039900 37.394100 -40.985400 0.000008 0.000006 4.553630 -4.273740 -64.456000 -11.754300 -0.000006 -0.000006 -0.022700 -0.181807 -24.006500
0.000000 0.000000 0.000000 0.000000 0.000000 -0.000000 128.952000 85.596400 147.814000 103.463000 -41.995100 8.263150 15.735700 0.000005 -0.000001 46.568300 81.899100 -45.879600 8.984550 -0.406207 -0.000000 4.131880 -11.143900 1.782550 16.377300 -0.000001 -0.000001 0.732483 -7.609750 1.498490 6.456720 -0.000001 -0.000000 -2.717300 -4.246600 5.473260 12.994200 -0.242716 4.980390 -88.735200 -4.597140 -74.601300 5.348090 -0.000007 -0.000001 -58.151900 40.805600 -46.616200 24.328600 0.000019 0.000005 3.560060 -1.198770 -108.615000 22.291600 -0.000001 0.000005 8.445200 5.501700 -6.601050 12.994500 -0.242716 -4.980390 89.737200 0.920120 -74.069500 -5.348130 -0.000001 -0.000004 -66.505000 31.976800 31.316700 -24.328900 0.000322 -0.000009 -11.712700 -1.236010 -84.061700 -22.291500 -0.000108 -0.000004 20.259300 5.649710 -14.950200 -2.192480 -6.469440 -0.000000 -173.028000 -14.900000 7.662980 39.081100 -0.000007 -0.000012 -0.088796 0.107561 39.541700 40.985400 -0.000006 -0.000013 -12.629600 8.419610 -52.695400 11.754300 -0.000000 0.000003 -0.285966 -0.771816 -50.438000 -2.192510 6.469440 -0.000001 -163.601000 31.323600 147.009000 -39.081100 -0.002282 -0.040193 -0.100300 0.130437 38.453800 -40.985400 0.000008 0.000006 26.811800 -9.363240 -66.915600 -11.754300 -0.000006 -0.000006 -0.013664 -0.129235 -21.843900
0.000000 0.000000 0.000000 0.000000 0.000000 -0.000000 125.286000 83.849600 151.445000 104.408000 -43.909800 10.947600 15.735700 0.000005 -0.000001 53.263700 82.156600 -52.437200 8.984550 -0.406207 -0.000000 4.926740 -9.385180 2.058600 16.377300 -0.000001 -0.000001 0.622173 -8.053970 0.866066 6.456720 -0.000001 -0.000000 -1.925580 -5.671210 5.427360 12.994200 -0.242716 4.980390 -89.814400 -0.681534 -74.734800 5.348090 -0.000007 -0.000001 -61.429600 44.554200 -35.810400 24.328600 0.000019 0.000005 6.530900 -0.564557 -94.961300 22.291600 -0.000001 0.000005 9.078170 5.510230 -6.951750 12.994500 -0.242716 -4.980390 88.163900 6.375150 -73.893900 -5.348130 -0.000001 -0.000004 -64.656100 28.725000 25.365200 -24.328900 0.000322 -0.000009 -13.365400 -2.571980 -79.305200 -22.291500 -0.000108 -0.000004 23.784700 5.656090 -15.633100 -2.192480 -6.469440 -0.000000 -171.451000 -16.213200 5.123870 39.081100 -0.000007 -0.000012 0.098348 -0.079525 51.039700 40.985400 -0.000006 -0.000013 -8.308370 9.630770 -43.297400 11.754300 -0.000000 0.000003 -0.305580 -0.797002 -51.732400 -2.192510 6.469440 -0.000001 -167.321000 26.664000 150.538000 -39.081100 -0.002282 -0.040193 -0.310328 0.300963 46.177400 -40.985400 0.000008 0.000006 23.304200 -15.431500 -74.388300 -11.754300 -0.000006 -0.000006 -0.007838 -0.086708 -20.103700
0.000000 0.000000 0.000000 0.000000 0.000000 -0.000000 121.795000 82.636200 154.019000 103.582000 -49.314000 12.016900 15.735700 0.000005 -0.000001 65.650600 82.346200 -64.107300 8.984550 -0.406207 -0.000000 6.296600 -6.313200 3.433330 16.377300 -0.000001 -0.000001 -0.415886 -7.373770 0.869061 6.456720 -0.000001 -0.000000 -2.768870 -6.592920 4.243830 12.994200 -0.242716 4.980390 -90.649600 2.149590 -73.184500 5.348090 -0.000007 -0.000001 -61.433700 46.295800 -27.949700 24.328600 0.000019 0.000005 8.542330 2.344170 -74.790700 22.291600 -0.000001 0.000005 9.121360 5.532140 -7.885930 12.994500 -0.242716 -4.980390 86.670300 11.724100 -74.023100 -5.348130 -0.000001 -0.000004 -61.398000 30.687100 14.836100 -24.328900 0.000322 -0.000009 -15.295900 -2.737490 -80.094200 -22.291500 -0.000108 -0.000004 24.211900 5.650400 -15.054700 -2.192480 -6.469440 -0.000000 -169.882000 -17.078300 -0.737511 39.081100 -0.000007 -0.000012 0.222529 -0.111627 63.359300 40.985400 -0.000006 -0.000013 -4.879330 5.868100 -31.182300 11.754300 -0.000000 0.000003 -0.030489 -0.219711 -25.579100 -2.192510 6.469440 -0.000001 -167.347000 20.096000 154.924000 -39.081100 -0.002282 -0.040193 -0.299927 0.258285 49.571700 -40.985400 0.000008 0.000006 22.153800 -18.900000 -77.931400 -11.754300 -0.000006 -0.000006 -0.007638 -0.085048 -20.036000
0.000000 0.000000 0.000000 0.000000 0.000000 -0.000000 118.772000 82.342700 155.901000 103.905000 -54.096800 12.449100 15.735700 0.000005 -0.000001 70.935600 82.574200 -69.036000 8.984550 -0.406207 -0.000000 6.372230 -4.859970 4.067520 16.377300 -0.000001 -0.000001 -0.471475 -6.419730 1.133870 6.456720 -0.000001 -0.000000 -3.984440 -5.629640 2.858290 12.994200 -0.242716 4.980390 -91.012500 3.299990 -72.931700 5.348090 -0.000007 -0.000001 -61.760700 46.609700 -17.773200 24.328600 0.000019 0.000005 10.458200 7.048980 -56.408900 22.291600 -0.000001 0.000005 9.741780 5.555930 -8.987470 12.994500 -0.242716 -4.980390 86.271800 13.302300 -74.188100 -5.348130 -0.000001 -0.000004 -58.757200 37.920000 -1.190520 -24.328900 0.000322 -0.000009 -12.069500 -0.915872 -85.737800 -22.291500 -0.000108 -0.000004 23.568200 5.659470 -15.991100 -2.192480 -6.469440 -0.000000 -172.207000 -14.459100 -9.453820 39.081100 -0.000007 -0.000012 0.080551 -0.022526 74.372000 40.985400 -0.000006 -0.000013 0.278625 -5.751010 -31.736800 11.754300 -0.000000 0.000003 -0.008731 -0.093906 -20.401500 -2.192510 6.469440 -0.000001 -167.632000 19.676100 158.757000 -39.081100 -0.002282 -0.040193 -0.271617 0.233731 49.624300 -40.985400 0.000008 0.000006 22.038600 -16.105100 -81.878500 -11.754300 -0.000006 -0.000006 -0.007004 -0.079696 -19.817500
